<svg xmlns="http://www.w3.org/2000/svg" xmlns:v="https://svgstorm.com"
viewBox = "0 0 64 64"
width="64"
height="64">
<g fill="#000000" fill-opacity="0.00" stroke="None">
<path d="
M 0.00 64.00 
L 64.00 64.00
L 64.00 0.00
L 0.00 0.00
L 0.00 64.00
M 34.00 8.00 
C 40.36 9.23 43.77 8.04 48.25 13.75 C 52.73 19.46 49.98 24.67 50.00 31.00
C 50.01 35.12 53.17 41.13 47.00 43.00
C 46.89 43.03 47.00 44.00 47.00 44.00
C 47.12 44.26 47.75 44.91 48.00 45.00
C 51.05 46.09 56.93 48.92 57.00 53.00
C 57.09 53.09 56.07 54.07 56.00 54.00
C 56.42 54.47 55.45 54.58 55.00 54.00
C 53.12 50.48 51.18 49.24 48.00 47.00
C 47.70 46.79 46.97 46.02 47.00 46.00
C 43.89 44.52 44.18 46.52 43.00 49.00
C 36.63 46.37 30.73 51.59 26.00 46.00
C 18.41 47.77 16.68 54.56 14.00 60.00
C 7.90 56.57 2.23 46.88 12.00 44.00
C 12.40 40.35 10.76 35.43 14.00 33.00
C 9.78 25.96 11.36 19.57 15.30 12.30 C 19.25 5.04 28.07 6.85 34.00 8.00 Z"/>
</g>
<g fill="#4E3F3D" fill-opacity="0.90" stroke="None">
<path d="
M 14.00 33.00 
C 14.13 33.22 15.00 33.00 15.00 33.00
C 18.51 30.43 13.89 19.42 21.08 18.08 C 28.26 16.73 27.60 9.59 34.00 8.00
C 28.07 6.85 19.25 5.04 15.30 12.30 C 11.36 19.57 9.78 25.96 14.00 33.00 Z"/>
</g>
<g fill="#FCD75B" fill-opacity="0.93" stroke="None">
<path d="
M 15.00 33.00 
C 15.44 32.68 12.98 34.32 14.00 33.00
C 10.76 35.43 12.40 40.35 12.00 44.00
C 2.23 46.88 7.90 56.57 14.00 60.00
C 16.68 54.56 18.41 47.77 26.00 46.00
C 30.73 51.59 36.63 46.37 43.00 49.00
C 44.18 46.52 43.89 44.52 47.00 46.00
C 47.41 46.19 48.00 46.00 48.00 46.00
C 48.00 45.50 48.00 45.00 48.00 45.00
C 47.75 44.75 47.00 45.00 47.00 45.00
C 46.65 44.97 46.25 44.09 46.00 44.00
C 41.89 42.54 43.30 41.09 41.00 39.00
C 39.05 37.23 35.25 37.22 33.00 36.00
C 34.32 38.59 37.12 40.18 40.00 40.00
C 42.47 45.86 29.72 47.34 31.01 40.99 C 32.30 34.64 29.35 30.20 28.00 25.00
C 30.94 25.15 34.37 25.61 35.00 22.00
C 39.23 24.75 43.60 20.86 48.00 21.00
C 48.00 25.00 48.00 29.00 48.00 33.00
C 48.37 32.40 49.66 31.58 50.00 31.00
C 49.98 24.67 52.73 19.46 48.25 13.75 C 43.77 8.04 40.36 9.23 34.00 8.00
C 27.60 9.59 28.26 16.73 21.08 18.08 C 13.89 19.42 18.51 30.43 15.00 33.00
M 31.00 45.00 
C 31.73 45.54 32.95 45.87 33.00 47.00
C 31.29 47.91 27.42 45.33 30.00 44.00
C 30.08 43.92 30.74 44.77 31.00 45.00
M 42.00 46.00 
C 42.08 46.57 39.31 48.07 40.00 46.00
C 39.18 44.21 43.60 43.87 42.00 46.00
M 28.00 45.00 
C 28.74 45.74 27.18 44.18 28.00 45.00
M 19.00 49.00 
C 19.74 49.74 18.18 48.18 19.00 49.00
M 9.00 53.00 
C 9.74 53.74 8.18 52.18 9.00 53.00 Z"/>
</g>
<g fill="#FDF5D1" fill-opacity="1.00" stroke="None">
<path d="
M 41.00 39.00 
C 45.74 39.05 46.00 36.19 48.00 33.00
C 48.00 29.00 48.00 25.00 48.00 21.00
C 43.60 20.86 39.23 24.75 35.00 22.00
C 34.37 25.61 30.94 25.15 28.00 25.00
C 29.35 30.20 32.30 34.64 31.01 40.99 C 29.72 47.34 42.47 45.86 40.00 40.00
C 37.12 40.18 34.32 38.59 33.00 36.00
C 35.25 37.22 39.05 37.23 41.00 39.00 Z"/>
</g>
<g fill="#51413F" fill-opacity="0.89" stroke="None">
<path d="
M 48.00 33.00 
C 46.00 36.19 45.74 39.05 41.00 39.00
C 43.30 41.09 41.89 42.54 46.00 44.00
C 45.97 43.98 46.65 43.11 47.00 43.00
C 53.17 41.13 50.01 35.12 50.00 31.00
C 49.66 31.58 48.37 32.40 48.00 33.00 Z"/>
</g>
<g fill="#E9C655" fill-opacity="0.71" stroke="None">
<path d="
M 15.00 33.00 
C 15.00 33.00 14.13 33.22 14.00 33.00
C 12.98 34.32 15.44 32.68 15.00 33.00 Z"/>
</g>
<g fill="#4C3D3D" fill-opacity="0.41" stroke="None">
<path d="
M 46.00 44.00 
C 46.36 43.77 47.00 44.00 47.00 44.00
C 47.00 44.00 46.89 43.03 47.00 43.00
C 46.65 43.11 45.97 43.98 46.00 44.00 Z"/>
</g>
<g fill="#261E18" fill-opacity="0.37" stroke="None">
<path d="
M 31.00 45.00 
C 30.92 45.08 29.91 44.09 30.00 44.00
C 27.42 45.33 31.29 47.91 33.00 47.00
C 32.95 45.87 31.73 45.54 31.00 45.00 Z"/>
</g>
<g fill="#A78E4D" fill-opacity="1.00" stroke="None">
<path d="
M 31.00 45.00 
C 30.74 44.77 30.08 43.92 30.00 44.00
C 29.91 44.09 30.92 45.08 31.00 45.00 Z"/>
</g>
<g fill="#51433F" fill-opacity="0.55" stroke="None">
<path d="
M 40.00 46.00 
C 40.42 45.82 41.82 46.24 42.00 46.00
C 43.60 43.87 39.18 44.21 40.00 46.00 Z"/>
</g>
<g fill="#FED95A" fill-opacity="0.48" stroke="None">
<path d="
M 47.00 45.00 
C 46.75 44.75 47.00 44.00 47.00 44.00
C 47.00 44.00 46.36 43.77 46.00 44.00
C 46.25 44.09 46.65 44.97 47.00 45.00 Z"/>
</g>
<g fill="#FED862" fill-opacity="0.05" stroke="None">
<path d="
M 47.00 45.00 
C 47.00 45.00 47.75 44.75 48.00 45.00
C 47.75 44.91 47.12 44.26 47.00 44.00
C 47.00 44.00 46.75 44.75 47.00 45.00 Z"/>
</g>
<g fill="#E5C356" fill-opacity="0.43" stroke="None">
<path d="
M 28.00 45.00 
C 27.18 44.18 28.74 45.74 28.00 45.00 Z"/>
</g>
<g fill="#FFDC5B" fill-opacity="0.44" stroke="None">
<path d="
M 48.00 46.00 
C 48.00 46.50 48.00 47.00 48.00 47.00
C 51.18 49.24 53.12 50.48 55.00 54.00
C 55.11 54.21 56.00 54.00 56.00 54.00
C 56.26 53.88 56.92 52.92 57.00 53.00
C 56.93 48.92 51.05 46.09 48.00 45.00
C 48.00 45.00 48.00 45.50 48.00 46.00 Z"/>
</g>
<g fill="#000000" fill-opacity="0.00" stroke="None">
<path d="
M 42.00 46.00 
C 41.82 46.24 40.42 45.82 40.00 46.00
C 39.31 48.07 42.08 46.57 42.00 46.00 Z"/>
</g>
<g fill="#FEDA58" fill-opacity="0.22" stroke="None">
<path d="
M 48.00 47.00 
C 48.00 47.00 48.00 46.50 48.00 46.00
C 48.00 46.00 47.41 46.19 47.00 46.00
C 46.97 46.02 47.70 46.79 48.00 47.00 Z"/>
</g>
<g fill="#FED95A" fill-opacity="0.66" stroke="None">
<path d="
M 19.00 49.00 
C 18.18 48.18 19.74 49.74 19.00 49.00 Z"/>
</g>
<g fill="#FED85A" fill-opacity="0.62" stroke="None">
<path d="
M 9.00 53.00 
C 8.18 52.18 9.74 53.74 9.00 53.00 Z"/>
</g>
<g fill="#FE0000" fill-opacity="0.00" stroke="None">
<path d="
M 56.00 54.00 
C 56.07 54.07 57.09 53.09 57.00 53.00
C 56.92 52.92 56.26 53.88 56.00 54.00 Z"/>
</g>
<g fill="#FEFF00" fill-opacity="0.00" stroke="None">
<path d="
M 56.00 54.00 
C 56.00 54.00 55.11 54.21 55.00 54.00
C 55.45 54.58 56.42 54.47 56.00 54.00 Z"/>
</g>
</svg>